PathFileType	4	(X/Y/Z)	C:/Users/opensim2020/Desktop/walking_exp_matlab/subject01_walking11_straight_03.trc																																																																																																																																		
DataRate	CameraRate	NumFrames	NumMarkers	Units	OrigDataRate	OrigDataStartFrame	OrigNumFrames																																																																																																																														
100	100	5	44	mm	100	2954	338																																																																																																																														
Frame#	Time	LFHD			RFHD			LBHD			RBHD			C7			T10			CLAV			STRN			RBAK			LSHO			LUPA			LELB			LFRM			LWRA			LWRB			LFIN			RSHO			RUPA			RELB			RFRM			RWRA			RWRB			RFIN			LASI			RASI			LPSI			RPSI			LTHI			LKNE			LTIB			LANK			LHEE			LTOE			RTHI			RKNE			RTIB			RANK			RHEE			RTOE			*39			*40			*41			*42			*43		
		X1	Y1	Z1	X2	Y2	Z2	X3	Y3	Z3	X4	Y4	Z4	X5	Y5	Z5	X6	Y6	Z6	X7	Y7	Z7	X8	Y8	Z8	X9	Y9	Z9	X10	Y10	Z10	X11	Y11	Z11	X12	Y12	Z12	X13	Y13	Z13	X14	Y14	Z14	X15	Y15	Z15	X16	Y16	Z16	X17	Y17	Z17	X18	Y18	Z18	X19	Y19	Z19	X20	Y20	Z20	X21	Y21	Z21	X22	Y22	Z22	X23	Y23	Z23	X24	Y24	Z24	X25	Y25	Z25	X26	Y26	Z26	X27	Y27	Z27	X28	Y28	Z28	X29	Y29	Z29	X30	Y30	Z30	X31	Y31	Z31	X32	Y32	Z32	X33	Y33	Z33	X34	Y34	Z34	X35	Y35	Z35	X36	Y36	Z36	X37	Y37	Z37	X38	Y38	Z38	X39	Y39	Z39	X40	Y40	Z40	X41	Y41	Z41	X42	Y42	Z42	X43	Y43	Z43	X44	Y44	Z44
																																																																																																																																					
127	1.26	-154.71834	1680.11096	1352.46436	-129.7849	1693.39722	1462.71619	-250.76431	1603.74915	1375.59656	-226.67487	1615.99841	1492.91516	-243.09077	1432.87207	1408.61084	-275.35626	1141.84058	1425.9812	-97.91657	1368.8584	1410.5022	-54.08811	1211.43567	1409.02771	-296.01346	1241.02515	1488.99377	-155.16072	1396.91418	1249.45886	-168.72318	1209.5459	1168.92322	-166.87454	1057.90942	1173.87952	-113.64601	957.06519	1150.58948	-17.85039	856.6601	1168.45483	-71.80817	842.11542	1147.05688	-12.67654	781.85071	1135.97705	-163.82602	1397.94702	1560.59888	-217.52763	1198.25293	1663.85779	-211.82404	1073.8645	1668.72888	-179.19409	959.10327	1703.10132	-91.35295	846.87054	1691.27869	-136.90453	845.99908	1728.24683	-96.23566	769.09161	1728.05835	-105.55226	933.50482	1323.05127	-104.33906	937.22644	1539.15723	-291.93341	947.48248	1378.42786	-287.21979	947.90167	1524.72681	-120.92955	603.63416	1274.85498	-121.61144	469.22379	1294.31812	-169.76329	284.01233	1287.22998	-194.66112	67.194	1346.31018	-238.43387	37.69747	1400.81201	-48.50424	35.92736	1338.90625	-79.89808	612.22638	1609.23291	-41.21133	458.4906	1589.86169	-162.03485	328.81342	1589.60376	-275.9512	158.6904	1540.74036	-331.55658	141.24219	1484.27075	-175.12265	62.52885	1555.07532	-153.88585	1721.10352	1442.13232	1973.09155	1023.56738	-3101.83398	2012.52368	1022.04584	-3140.73169	NaN	NaN	NaN	NaN	NaN	NaN
128	1.27	-148.98029	1680.36072	1352.0708	-124.17662	1693.51819	1462.39978	-245.03087	1603.78906	1375.03796	-221.08763	1615.89563	1492.32129	-237.54274	1433.17041	1407.83032	-270.17715	1142.16187	1424.95386	-92.46297	1368.97485	1409.81384	-48.87793	1211.44568	1408.22546	-290.73148	1241.26819	1487.75732	-149.41289	1397.32312	1248.77893	-162.43996	1210.13635	1167.9668	-160.03564	1058.30054	1172.84094	-105.65156	958.02954	1149.91345	-8.71499	858.76166	1167.88904	-62.39148	843.5658	1146.47815	-2.41873	784.09302	1135.38818	-158.59827	1398.05762	1559.91748	-213.23669	1198.3811	1662.75452	-207.9277	1074.0094	1667.59326	-175.9323	959.14594	1702.10217	-88.58537	846.51184	1690.72461	-134.24438	845.90802	1727.50916	-93.95183	768.86047	1727.58093	-100.93868	933.48859	1322.16992	-99.28067	937.73804	1538.24268	-287.14267	947.7644	1378.0105	-282.20901	948.25311	1524.34778	-118.5826	603.46643	1274.25061	-120.06432	468.97256	1293.72852	-169.08186	283.96191	1286.98083	-194.72801	67.17582	1346.23938	-238.20602	37.73774	1400.97119	-48.50103	35.75953	1338.75928	-72.50127	613.53497	1608.68677	-32.23745	460.19504	1588.88806	-149.3051	326.73334	1588.58752	-257.66095	152.83789	1539.42822	-311.74323	133.08115	1483.29919	-153.38998	60.60706	1554.6709	-148.36639	1721.26184	1441.83362	1973.06555	1023.6358	-3101.91968	2012.56274	1022.11169	-3140.65356	NaN	NaN	NaN	NaN	NaN	NaN
129	1.28	-143.25885	1680.51184	1351.72119	-118.61288	1693.5614	1462.0863	-239.30264	1603.85864	1374.48035	-215.45163	1615.79712	1491.78528	-231.92403	1433.4292	1407.03979	-265.05814	1142.45032	1424.01746	-86.9743	1369.0166	1409.19653	-43.58388	1211.45239	1407.53711	-285.51352	1241.50098	1486.70667	-143.63753	1397.651	1248.15479	-156.24429	1210.65173	1167.08557	-153.27885	1058.71497	1171.76489	-97.43828	958.92236	1149.06628	0.50005	860.93683	1167.4624	-53.00163	845.02319	1145.97375	7.58473	786.3161	1134.95667	-153.18431	1398.14636	1559.29773	-208.98291	1198.46265	1661.6676	-204.04575	1074.13892	1666.51807	-172.67918	959.16913	1701.16101	-85.79831	846.15735	1690.16406	-131.68384	845.80286	1726.7583	-91.59163	768.56378	1727.0575	-96.14474	933.44482	1321.13623	-94.09715	938.2226	1537.40955	-282.30237	947.92401	1377.65991	-277.01663	948.48273	1523.98462	-116.19216	603.24432	1273.74341	-118.49552	468.66574	1293.30322	-168.44025	284.00726	1286.77563	-195.04491	67.36369	1346.12463	-237.881	37.54414	1401.05872	-48.45702	35.46801	1338.5752	-65.20174	614.74072	1608.18652	-23.85727	461.50897	1587.91406	-136.50951	324.41345	1587.60083	-238.93253	147.05919	1538.43506	-292.65823	125.84708	1481.67529	-131.40588	58.59459	1554.47388	-142.798	1721.21021	1441.4563	1973.1582	1023.5061	-3101.85352	2012.44946	1021.98627	-3140.74414	NaN	NaN	NaN	NaN	NaN	NaN
130	1.29	-137.48846	1680.58264	1351.41785	-112.98343	1693.55396	1461.81213	-233.48634	1603.86389	1373.9281	-209.78642	1615.74243	1491.3457	-226.24969	1433.66199	1406.3844	-259.83545	1142.72095	1423.20703	-81.44629	1369.03394	1408.66528	-38.34296	1211.36621	1406.83179	-280.23206	1241.67297	1485.71594	-137.88573	1397.91858	1247.58008	-149.89583	1211.12048	1166.29041	-146.28603	1059.02417	1170.73376	-89.47878	959.81445	1148.38879	9.60084	862.9519	1167.10486	-43.58178	846.35413	1145.50513	17.6772	788.33942	1134.78894	-147.81972	1398.13684	1558.67542	-204.72813	1198.51184	1660.62622	-200.1851	1074.26392	1665.49658	-169.50615	959.12769	1700.21045	-82.95634	845.77246	1689.61914	-129.09534	845.48651	1725.94531	-89.28427	768.258	1726.58838	-91.57832	933.36121	1320.48572	-88.82539	938.62646	1536.62988	-277.49542	948.15405	1377.41162	-271.80142	948.70435	1523.63464	-113.64841	602.98395	1273.35217	-116.81075	468.39047	1292.80615	-167.71658	283.94232	1286.70557	-194.60229	67.24194	1346.21228	-238.24869	37.62983	1401.13599	-48.16483	35.28027	1338.45276	-58.20072	615.76257	1607.75098	-15.52472	462.93845	1587.15356	-123.85574	322.14471	1586.85925	-219.71933	141.37323	1537.79077	-272.61072	117.8519	1480.70386	-109.22277	56.88607	1554.53784	-137.07027	1721.38818	1441.37122	1973.17822	1023.35925	-3101.83423	2012.56067	1022.15991	-3140.76416	NaN	NaN	NaN	NaN	NaN	NaN
131	1.3	-131.67949	1680.68579	1351.13989	-107.31381	1693.51233	1461.56104	-227.68991	1603.8324	1373.47644	-204.16229	1615.62622	1490.90674	-220.61078	1433.80273	1405.75122	-254.54507	1142.93616	1422.52722	-75.86469	1368.97412	1408.16016	-32.96059	1211.23792	1406.23962	-274.82956	1241.80884	1484.86877	-132.09122	1398.15955	1247.08887	-143.52992	1211.48364	1165.5271	-139.45865	1059.37915	1169.95825	-81.41006	960.63989	1147.78052	18.78637	864.98901	1166.90637	-34.1585	847.75427	1145.09399	27.93313	790.44934	1134.50378	-142.33969	1398.09131	1558.1333	-200.46255	1198.53906	1659.63159	-196.30522	1074.28772	1664.55298	-166.1962	959.0094	1699.30603	-80.11691	845.34613	1689.10352	-126.53911	845.17664	1725.1842	-86.82809	767.88464	1726.16101	-86.72062	933.25952	1319.42896	-83.61285	938.91431	1535.84277	-272.57178	948.30127	1377.18726	-266.76938	949.13916	1523.47974	-110.90506	602.72046	1272.94653	-115.11708	468.06534	1292.47229	-166.9183	283.89749	1286.5752	-194.41139	67.29804	1346.32825	-238.20476	37.75735	1401.09058	-47.90245	35.04287	1338.34033	-51.5699	616.49823	1607.17249	-7.65218	463.99512	1586.31787	-111.24342	319.82648	1586.15259	-200.24051	135.49486	1537.24683	-252.31027	110.04028	1479.85852	-86.99335	55.05983	1554.72107	-131.42757	1721.31067	1441.07629	1973.04736	1023.34448	-3101.83911	2012.49158	1022.0434	-3140.6897	NaN	NaN	NaN	NaN	NaN	NaN
